<svg id="egvzk0icjx5u1" xmlns="http://www.w3.org/2000/svg" xmlns:xlink="http://www.w3.org/1999/xlink" viewBox="0 0 500 500" shape-rendering="geometricPrecision" text-rendering="geometricPrecision" width="500" height="500"><style><![CDATA[#egvzk0icjx5u3_ts {animation: egvzk0icjx5u3_ts__ts 2500ms infinite linear forwards}@keyframes egvzk0icjx5u3_ts__ts { 0% {transform: translate(150px,150px) scale(1,1)} 6.666667% {transform: translate(150px,150px) scale(1.250000,1.250000)} 13.333333% {transform: translate(150px,150px) scale(1,1)} 20% {transform: translate(150px,150px) scale(1.250000,1.250000)} 26.666667% {transform: translate(150px,150px) scale(1,1)} 33.333333% {transform: translate(150px,150px) scale(1,1)} 66.666667% {transform: translate(150px,150px) scale(1,1)} 100% {transform: translate(150px,150px) scale(1,1)} }]]></style><g id="egvzk0icjx5u2" transform="matrix(1 0 0 1 100 100)"><g id="egvzk0icjx5u3_ts" transform="translate(150,150) scale(1,1)"><path id="egvzk0icjx5u3" d="M151.303538,4.140141C144.008619,0.127702,135.628832,-2.178504,126.701205,-2.178504C110.934591,-2.178504,96.818705,4.985149,87.498219,16.220698C78.132681,4.985149,64.031211,-2.178504,48.246576,-2.178504C39.335168,-2.178504,30.977007,0.127702,23.660462,4.140141C7.960525,12.811837,-2.675497,29.486790,-2.675497,48.649923C-2.675497,54.134370,-1.779851,59.397205,-0.159759,64.319514C8.582251,103.517814,87.498219,152.944500,87.498219,152.944500C87.498219,152.944500,166.367332,103.517814,175.120154,64.319514C176.742049,59.397205,177.639497,54.128965,177.639497,48.649923C177.639497,29.492195,167.003475,12.826251,151.303538,4.140141Z" transform="translate(-87.482000,-75.382998)" fill="red" fill-rule="evenodd" stroke="none" stroke-width="1"/></g></g></svg>